<?xml version="1.0" encoding="UTF-8"?>
<!DOCTYPE svg PUBLIC "-//W3C//DTD SVG 1.1//EN" "http://www.w3.org/Graphics/SVG/1.1/DTD/svg11.dtd">
<!-- Creator: CorelDRAW -->
<svg xmlns="http://www.w3.org/2000/svg" xml:space="preserve" width="85.7009mm" height="14.7553mm" version="1.1" style="shape-rendering:geometricPrecision; text-rendering:geometricPrecision; image-rendering:optimizeQuality; fill-rule:evenodd; clip-rule:evenodd"
viewBox="0 0 8280.86 1425.73"
 xmlns:xlink="http://www.w3.org/1999/xlink"
 xmlns:xodm="http://www.corel.com/coreldraw/odm/2003">
 <defs>
  <style type="text/css">
   <![CDATA[
    .fil1 {fill:#6EFAAA;fill-rule:nonzero}
    .fil0 {fill:white;fill-rule:nonzero}
   ]]>
  </style>
 </defs>
 <g id="Слой_x0020_1">
  <metadata id="CorelCorpID_0Corel-Layer"/>
  <path class="fil0" d="M1071.8 697.79l-874.73 0 29.52 -94.63c29.08,-93.23 115.4,-156.74 213.08,-156.74l838.46 0c86.9,0 150.34,82.08 128.44,166.17l-76.12 292.27c-25.62,98.34 -114.39,166.94 -216.02,166.94l-716.26 0 -90.51 353.93 -307.66 0 121.31 -434.11c26.96,-96.45 114.83,-163.13 214.98,-163.13l703.33 0 32.18 -130.7z"/>
  <path class="fil0" d="M1570.51 446.43l-216.63 808.2c-22.6,84.28 40.91,167.07 128.19,167.07l871.23 0c101.55,0 190.29,-68.53 215.97,-166.78l211.79 -810.52 -113.11 0c-101.57,0 -190.33,68.57 -215.98,166.86l-147.5 565.1 -647.5 0 156.1 -562.53c23.56,-84.93 -40.67,-168.82 -128.82,-168.21l-113.74 0.79z"/>
  <path class="fil0" d="M4055.96 448.44l-977.46 0c-99.83,0 -187.52,66.28 -214.74,162.36l-22.37 78.95 976.11 0c98.57,0 185.46,-64.66 213.8,-159.07l24.66 -82.24z"/>
  <path class="fil0" d="M2811.22 808.39l-21.32 73.72c-24.55,84.88 39.12,169.59 127.49,169.59l708.23 0 -40.23 126.69 -675.95 0c-96.91,0 -182.73,62.53 -212.45,154.74l-28.54 88.6 990.75 0c101.15,0 189.65,-68.01 215.7,-165.75l74.33 -278.98c22.41,-84.16 -40.93,-166.74 -128.02,-166.87l-1009.99 -1.73z"/>
  <polygon class="fil0" points="4222.87,444.42 3961.44,1415.67 4244.97,1415.67 4351.56,1023.55 4876.39,1023.55 4773.84,1413.65 5059.4,1413.65 5214.23,820.45 4401.83,820.45 4506.39,446.44 "/>
  <polygon class="fil0" points="5033.25,440.4 4976.94,663.6 5260.48,663.6 5314.78,444.42 "/>
  <path class="fil1" d="M5314.77 444.42l910.12 0c30.67,0 52.86,29.3 44.52,58.82 -5.63,19.93 -23.82,33.68 -44.52,33.68l-324.94 0 -34.2 126.69 364.51 0c83.88,0 156.08,-59.2 172.54,-141.45 21.77,-108.88 -61.52,-210.46 -172.54,-210.46l-885.34 0 -30.16 132.72z"/>
  <path class="fil1" d="M7346.3 554.3c18.8,-60.57 74.86,-101.84 138.28,-101.84l337.75 0 -136.65 432.75c-19.17,60.71 -75.73,101.76 -139.37,101.18l-333.26 -3.04 133.25 -429.03zm797.85 -97.91l-164.96 525.34c-56.84,181.06 -224.63,304.23 -414.4,304.23l-428.5 0c-161.37,0 -277.27,-155.32 -231.31,-310.02l155.23 -522.47 184 0 -166.82 561.08c-16.09,54.15 24.48,108.54 80.95,108.54l386.24 0c119.1,0 224.3,-77.63 259.41,-191.43l157.54 -510.61c16.76,-54.32 -23.85,-109.36 -80.69,-109.36l-1170.51 0c0,0 24.14,-57.32 -69.39,-168.92l1272.98 0c162.94,0 279.04,158.17 230.23,313.62zm-249.68 -456.38l-2654.12 0 -44.22 142.76 1087.87 0c172.94,0 279.51,52.28 307.66,221.2 28.16,168.92 -144.77,309.69 -144.77,309.69 0,0 152.81,82.44 136.73,273.47 -16.1,191.03 -174.95,345.88 -478.59,345.88l-758.09 0 52.27 -174.96 831.23 0c79.91,0 149.55,-54.43 168.8,-131.97 27.29,-109.74 -55.73,-215.92 -168.8,-215.92l-388.83 0 -46.24 118.66 439.52 0c29.65,0 51.98,27.01 46.42,56.15 -4.28,22.25 -23.76,38.36 -46.42,38.36l-928.17 0 -136.74 438.36 931.04 0c277.51,0 426.3,-70.36 532.89,-241.28 106.58,-170.93 118.64,-351.92 2,-526.86 88.48,-116.64 70.4,-211.15 70.4,-211.15l225.2 0 -145.78 478.73c-75.54,248.05 110.04,498.57 369.34,498.57l415.36 0c235.31,0 443.84,-151.58 516.45,-375.42l174.84 -539.06c80.91,-249.41 -105.05,-505.2 -367.26,-505.2z"/>
 </g>
</svg>
